<?xml version="1.0" encoding="UTF-8"?>
<!DOCTYPE svg PUBLIC "-//W3C//DTD SVG 1.1//EN" "http://www.w3.org/Graphics/SVG/1.1/DTD/svg11.dtd">
<!-- Creator: CorelDRAW 2018 (64-Bit Evaluation Version) -->
<svg xmlns="http://www.w3.org/2000/svg" xml:space="preserve" width="182.617mm" height="210.746mm" version="1.1" style="shape-rendering:geometricPrecision; text-rendering:geometricPrecision; image-rendering:optimizeQuality; fill-rule:evenodd; clip-rule:evenodd"
viewBox="0 0 18261.7 21074.6"
 xmlns:xlink="http://www.w3.org/1999/xlink">
 <defs>
  <style type="text/css">
   <![CDATA[
    .fil0 {fill:url(#id0)}
   ]]>
  </style>
  <linearGradient id="id0" gradientUnits="userSpaceOnUse" x1="9691.8" y1="12.05" x2="8569.89" y2="21062.55">
   <stop offset="0" style="stop-opacity:1; stop-color:#22AED1"/>
   <stop offset="1" style="stop-opacity:1; stop-color:#016FB9"/>
  </linearGradient>
 </defs>
 <g id="Layer_x0020_1">
  <metadata id="CorelCorpID_0Corel-Layer"/>
  <path class="fil0" d="M0.01 -6.62c0,0 2.69,237.97 2.69,363.34l0 19612.16c0,611.79 500.55,1112.34 1112.34,1112.34l16969.66 0c60.2,0 119.3,-4.92 176.98,-14.24 -129.43,-23.15 -345.07,-84.34 -477.7,-286.45 -247.17,-664.25 -208.39,-1939.91 -1000.61,-3721.8 -994.78,-2355.1 -3399.45,-5315.7 -7345.72,-6518.48 -2322.32,-707.82 -4191.86,-1883.54 -5450.37,-3393.46 -2686.8,-3223.51 -3743.43,-5684.33 -3987.27,-7153.41z"/>
 </g>
</svg>
